<svg height="746.66665pt" viewBox="-23 -23 746.66665 746.66665" width="746.66665pt" xmlns="http://www.w3.org/2000/svg"><path d="m361 348.5c0 6.90625-5.59375 12.5-12.5 12.5s-12.5-5.59375-12.5-12.5 5.59375-12.5 12.5-12.5 12.5 5.59375 12.5 12.5zm0 0"/><path d="m611 336h37.1875c-6.679688-155.757812-131.429688-280.507812-287.1875-287.1875v37.1875h-25v-37.1875c-155.757812 6.679688-280.507812 131.429688-287.1875 287.1875h37.1875v25h-37.1875c6.679688 155.757812 131.429688 280.507812 287.1875 287.1875v-37.1875h25v37.1875c155.757812-6.679688 280.507812-131.429688 287.1875-287.1875h-37.1875zm-462.5 100h100v25h-100zm150 75h-150v-25h150zm0-50h-25v-25h25zm208.835938-103.664062-35.351563 35.363281-17.671875-17.675781 14.011719-14.023438h-84.625c-5.78125 16.453125-22.167969 26.734375-39.5 24.773438-17.335938-1.964844-31.007813-15.636719-32.972657-32.972657-1.960937-17.332031 8.320313-33.71875 24.773438-39.5v-159.613281l-14.015625 14.011719-17.671875-17.675781 35.351562-35.359376c4.953126-4.6875 12.71875-4.6875 17.671876 0l35.351562 35.359376-17.671875 17.675781-14.015625-14.011719v159.613281c10.589844 3.777344 18.921875 12.109375 22.699219 22.699219h84.625l-14.011719-14.023438 17.671875-17.675781 35.351563 35.363281c4.878906 4.882813 4.878906 12.789063 0 17.671876zm0 0"/><path d="m348.5-1.5c-193.300781 0-350 156.699219-350 350s156.699219 350 350 350 350-156.699219 350-350c-.21875-193.207031-156.792969-349.78125-350-350zm0 675c-179.492188 0-325-145.507812-325-325s145.507812-325 325-325 325 145.507812 325 325c-.199219 179.40625-145.59375 324.800781-325 325zm0 0"/></svg>