<?xml version="1.0" encoding="iso-8859-1"?>
<!-- Generator: Adobe Illustrator 19.0.0, SVG Export Plug-In . SVG Version: 6.00 Build 0)  -->
<svg version="1.1" id="Capa_1" xmlns="http://www.w3.org/2000/svg" xmlns:xlink="http://www.w3.org/1999/xlink" x="0px" y="0px"
	 viewBox="0 0 512 512" style="enable-background:new 0 0 512 512;" xml:space="preserve">
<g>
	<g>
		<path d="M0,66v380h512V66H0z M482,416H51.213L192.5,274.713l58,58l134-134l97.5,97.5V416z M482,253.787l-97.5-97.5l-134,134
			l-58-58L30,394.787V96h452V253.787z"/>
	</g>
</g>
<g>
	<g>
		<path d="M120,126c-33.084,0-60,26.916-60,60s26.916,60,60,60s60-26.916,60-60S153.084,126,120,126z M120,216
			c-16.542,0-30-13.458-30-30s13.458-30,30-30s30,13.458,30,30S136.542,216,120,216z"/>
	</g>
</g>
<g>
</g>
<g>
</g>
<g>
</g>
<g>
</g>
<g>
</g>
<g>
</g>
<g>
</g>
<g>
</g>
<g>
</g>
<g>
</g>
<g>
</g>
<g>
</g>
<g>
</g>
<g>
</g>
<g>
</g>
</svg>
